<?xml version="1.0" encoding="utf-8"?>
<!-- Generator: Adobe Illustrator 21.0.2, SVG Export Plug-In . SVG Version: 6.00 Build 0)  -->
<svg version="1.1" id="Capa_1" xmlns="http://www.w3.org/2000/svg" xmlns:xlink="http://www.w3.org/1999/xlink" x="0px" y="0px"
	 viewBox="0 0 512 340" style="enable-background:new 0 0 512 340;" xml:space="preserve">
<style type="text/css">
	.st0{fill:#FFFFFF;}
</style>
<g>
	<g>
		<path class="st0" d="M19.3,43.4h473.4c10.7,0,19.3-8.7,19.3-19.3s-8.7-19.3-19.3-19.3H19.3C8.7,4.8,0,13.4,0,24.1
			S8.7,43.4,19.3,43.4z"/>
		<path class="st0" d="M19.3,188.3h473.4c10.7,0,19.3-8.7,19.3-19.3s-8.7-19.3-19.3-19.3H19.3C8.7,149.7,0,158.3,0,169
			S8.7,188.3,19.3,188.3z"/>
		<path class="st0" d="M19.3,333.2h473.4c10.7,0,19.3-8.7,19.3-19.3c0-10.7-8.7-19.3-19.3-19.3H19.3C8.7,294.6,0,303.2,0,313.9
			C0,324.6,8.7,333.2,19.3,333.2z"/>
	</g>
</g>
</svg>
